<svg width="249" height="53" viewBox="0 0 249 53" fill="none" xmlns="http://www.w3.org/2000/svg">
<rect y="0.542969" width="52" height="52" rx="26" fill="#FBD300"/>
<g clip-path="url(#clip0_495_617)">
<path d="M38 26.543C38 19.9155 32.6274 14.543 26 14.543C19.3726 14.543 14 19.9155 14 26.543C14 32.5324 18.3882 37.497 24.125 38.3972V30.0117H21.0781V26.543H24.125V23.8992C24.125 20.8917 25.9166 19.2305 28.6576 19.2305C29.9701 19.2305 31.3438 19.4648 31.3438 19.4648V22.418H29.8306C28.34 22.418 27.875 23.343 27.875 24.293V26.543H31.2031L30.6711 30.0117H27.875V38.3972C33.6118 37.497 38 32.5324 38 26.543Z" fill="#262626"/>
</g>
<rect x="66" y="0.542969" width="52" height="52" rx="26" fill="#FBD300"/>
<path d="M87.5502 36.2927C96.6045 36.2927 101.558 28.7894 101.558 22.2846C101.558 22.0736 101.554 21.858 101.544 21.6471C102.508 20.9502 103.339 20.087 104 19.098C103.103 19.4973 102.15 19.7581 101.174 19.8715C102.201 19.2556 102.971 18.2882 103.339 17.1485C102.373 17.7213 101.316 18.1253 100.213 18.3433C99.4708 17.5543 98.489 17.0318 97.4197 16.8568C96.3504 16.6817 95.2532 16.8638 94.2977 17.3748C93.3423 17.8859 92.5818 18.6974 92.1338 19.684C91.6859 20.6706 91.5754 21.7773 91.8195 22.833C89.8625 22.7348 87.9479 22.2264 86.2 21.3408C84.452 20.4552 82.9097 19.2122 81.673 17.6922C81.0444 18.776 80.8521 20.0584 81.135 21.2788C81.418 22.4993 82.1551 23.5662 83.1964 24.2627C82.4146 24.2379 81.65 24.0274 80.9656 23.6486V23.7096C80.9649 24.8469 81.3581 25.9493 82.0783 26.8295C82.7985 27.7097 83.8013 28.3133 84.9162 28.5377C84.1921 28.7359 83.432 28.7647 82.6948 28.6221C83.0095 29.6002 83.6216 30.4556 84.4458 31.0691C85.27 31.6825 86.2651 32.0233 87.2923 32.044C85.5484 33.4138 83.3942 34.1569 81.1766 34.1533C80.7833 34.1527 80.3904 34.1286 80 34.0811C82.2529 35.5265 84.8735 36.2941 87.5502 36.2927Z" fill="#262626"/>
<rect x="132" y="0.542969" width="52" height="52" rx="26" fill="#FBD300"/>
<g clip-path="url(#clip1_495_617)">
<path d="M168.223 14.543H147.772C146.792 14.543 146 15.3164 146 16.2727V36.8086C146 37.7648 146.792 38.543 147.772 38.543H168.223C169.203 38.543 170 37.7648 170 36.8133V16.2727C170 15.3164 169.203 14.543 168.223 14.543ZM153.12 34.9945H149.558V23.5383H153.12V34.9945ZM151.339 21.9773C150.195 21.9773 149.272 21.0539 149.272 19.9148C149.272 18.7758 150.195 17.8523 151.339 17.8523C152.478 17.8523 153.402 18.7758 153.402 19.9148C153.402 21.0492 152.478 21.9773 151.339 21.9773ZM166.452 34.9945H162.894V29.4258C162.894 28.0992 162.87 26.3883 161.042 26.3883C159.191 26.3883 158.909 27.8367 158.909 29.332V34.9945H155.356V23.5383H158.769V25.1039H158.816C159.289 24.2039 160.452 23.2523 162.181 23.2523C165.786 23.2523 166.452 25.6242 166.452 28.7086V34.9945Z" fill="#262626"/>
</g>
<rect x="198" y="0.542969" width="51" height="52" rx="25.5" fill="#FBD300"/>
<g clip-path="url(#clip2_495_617)">
<g clip-path="url(#clip3_495_617)">
<path fill-rule="evenodd" clip-rule="evenodd" d="M223.499 19.0771C225.768 19.0771 226.037 19.0858 226.933 19.1267C227.762 19.1645 228.211 19.3029 228.511 19.4192C228.908 19.5734 229.191 19.7576 229.488 20.0549C229.785 20.3522 229.969 20.6353 230.124 21.0319C230.24 21.3314 230.378 21.7813 230.416 22.6097C230.457 23.5058 230.466 23.7745 230.466 26.0434C230.466 28.3123 230.457 28.581 230.416 29.477C230.378 30.3055 230.24 30.7554 230.124 31.0549C229.969 31.4515 229.785 31.7346 229.488 32.0319C229.191 32.3293 228.908 32.5134 228.511 32.6675C228.211 32.7839 227.762 32.9223 226.933 32.9601C226.037 33.001 225.768 33.0097 223.499 33.0097C221.23 33.0097 220.962 33.001 220.066 32.9601C219.237 32.9223 218.787 32.7839 218.488 32.6675C218.091 32.5134 217.808 32.3293 217.511 32.0319C217.214 31.7346 217.029 31.4515 216.875 31.0549C216.759 30.7554 216.621 30.3055 216.583 29.4771C216.542 28.581 216.533 28.3123 216.533 26.0434C216.533 23.7745 216.542 23.5058 216.583 22.6098C216.621 21.7813 216.759 21.3314 216.875 21.0319C217.029 20.6353 217.214 20.3522 217.511 20.0549C217.808 19.7576 218.091 19.5734 218.488 19.4192C218.787 19.3029 219.237 19.1645 220.066 19.1267C220.962 19.0858 221.231 19.0771 223.499 19.0771ZM223.499 21.6799C221.09 21.6799 219.136 23.6335 219.136 26.0434C219.136 28.4533 221.09 30.4069 223.499 30.4069C225.909 30.4069 227.863 28.4533 227.863 26.0434C227.863 23.6335 225.909 21.6799 223.499 21.6799ZM223.499 28.8759C221.935 28.8759 220.667 27.6077 220.667 26.0434C220.667 24.4791 221.935 23.2109 223.499 23.2109C225.064 23.2109 226.332 24.4791 226.332 26.0434C226.332 27.6077 225.064 28.8759 223.499 28.8759ZM229.055 21.5075C229.055 22.0707 228.599 22.5272 228.035 22.5272C227.472 22.5272 227.016 22.0707 227.016 21.5075C227.016 20.9443 227.472 20.4878 228.035 20.4878C228.599 20.4878 229.055 20.9443 229.055 21.5075Z" fill="#1C1C1C"/>
</g>
</g>
<defs>
<clipPath id="clip0_495_617">
<rect width="24" height="24" fill="white" transform="translate(14 14.543)"/>
</clipPath>
<clipPath id="clip1_495_617">
<rect width="24" height="24" fill="white" transform="translate(146 14.543)"/>
</clipPath>
<clipPath id="clip2_495_617">
<rect width="15" height="15" fill="white" transform="translate(216 18.543)"/>
</clipPath>
<clipPath id="clip3_495_617">
<rect width="15" height="15" fill="white" transform="translate(216 18.543)"/>
</clipPath>
</defs>
</svg>
