<svg width="24" height="25" viewBox="0 0 24 25" fill="none" xmlns="http://www.w3.org/2000/svg">
<path fill-rule="evenodd" clip-rule="evenodd" d="M1.5 5.12598C1.5 3.46912 2.84315 2.12598 4.5 2.12598H5.87163C6.732 2.12598 7.48197 2.71153 7.69064 3.54622L8.79644 7.96941C8.97941 8.70128 8.70594 9.47152 8.10242 9.92416L6.8088 10.8944C6.67447 10.9951 6.64527 11.1427 6.683 11.2457C7.81851 14.3455 10.2805 16.8075 13.3803 17.943C13.4833 17.9807 13.6309 17.9515 13.7316 17.8172L14.7018 16.5236C15.1545 15.92 15.9247 15.6466 16.6566 15.8295L21.0798 16.9353C21.9144 17.144 22.5 17.894 22.5 18.7544V20.126C22.5 21.7828 21.1569 23.126 19.5 23.126H17.25C8.55151 23.126 1.5 16.0745 1.5 7.37598V5.12598Z" fill="#FFCF00"/>
</svg>
