<svg width="24" height="25" viewBox="0 0 24 25" fill="none" xmlns="http://www.w3.org/2000/svg">
<path fill-rule="evenodd" clip-rule="evenodd" d="M11.5397 22.977C11.57 22.9945 11.5937 23.008 11.6105 23.0175L11.6384 23.0331C11.8613 23.1554 12.1378 23.1545 12.3608 23.0335L12.3895 23.0175C12.4063 23.008 12.43 22.9945 12.4603 22.977C12.5207 22.942 12.607 22.891 12.7155 22.8242C12.9325 22.6906 13.2388 22.4935 13.6046 22.2351C14.3351 21.7191 15.3097 20.9534 16.2865 19.9533C18.2307 17.9628 20.25 14.9721 20.25 11.126C20.25 6.56963 16.5563 2.87598 12 2.87598C7.44365 2.87598 3.75 6.56963 3.75 11.126C3.75 14.9721 5.76932 17.9628 7.71346 19.9533C8.69025 20.9534 9.66491 21.7191 10.3954 22.2351C10.7612 22.4935 11.0675 22.6906 11.2845 22.8242C11.393 22.891 11.4793 22.942 11.5397 22.977ZM12 14.126C13.6569 14.126 15 12.7828 15 11.126C15 9.46912 13.6569 8.12598 12 8.12598C10.3431 8.12598 9 9.46912 9 11.126C9 12.7828 10.3431 14.126 12 14.126Z" fill="#FFCF00"/>
</svg>
